inDegrees=no
num_controls=7
num_derivatives=13
num_iterations=139
num_multipliers=7
num_parameters=0
num_slacks=7
num_states=26
objective=0.469484
objective_accelerations=0.001656
objective_balance=0.004718
objective_effort=0.007634
objective_height=0.455475
objective_ligament=0.000000
solver_duration=2105.322398
status=Solve_Succeeded
success=true
DataType=double
version=3
OpenSimVersion=4.5
endheader
time	/jointset/ground_pelvis/pelvis_tilt/value	/jointset/ground_pelvis/pelvis_tx/value	/jointset/ground_pelvis/pelvis_ty/value	/jointset/hip_l/hip_flexion_l/value	/jointset/hip_l/hip_adduction_l/value	/jointset/hip_l/hip_rotation_l/value	/jointset/back/lumbar_extension/value	/jointset/patellofemoral_l/patellar_flexion_l/value	/jointset/knee_l/knee_flexion_l/value	/jointset/knee_l/knee_adduction_l/value	/jointset/knee_l/knee_rotation_l/value	/jointset/ankle_l/ankle_angle_l/value	/jointset/subtalar_l/subtalar_angle_l/value	/jointset/ground_pelvis/pelvis_tilt/speed	/jointset/ground_pelvis/pelvis_tx/speed	/jointset/ground_pelvis/pelvis_ty/speed	/jointset/hip_l/hip_flexion_l/speed	/jointset/hip_l/hip_adduction_l/speed	/jointset/hip_l/hip_rotation_l/speed	/jointset/back/lumbar_extension/speed	/jointset/patellofemoral_l/patellar_flexion_l/speed	/jointset/knee_l/knee_flexion_l/speed	/jointset/knee_l/knee_adduction_l/speed	/jointset/knee_l/knee_rotation_l/speed	/jointset/ankle_l/ankle_angle_l/speed	/jointset/subtalar_l/subtalar_angle_l/speed	/forceset/tau_hip_flexion_l	/forceset/tau_hip_adduction_l	/forceset/tau_hip_rotation_l	/forceset/tau_knee_flexion_l	/forceset/tau_ankle_angle_l	/forceset/tau_subtalar_angle_l	/forceset/tau_lumbar_extension	lambda_cid13_p0	lambda_cid13_p1	lambda_cid13_p2	lambda_cid13_p3	lambda_cid13_p4	lambda_cid13_p5	lambda_cid14_p0	/jointset/ground_pelvis/pelvis_tilt/accel	/jointset/ground_pelvis/pelvis_tx/accel	/jointset/ground_pelvis/pelvis_ty/accel	/jointset/hip_l/hip_flexion_l/accel	/jointset/hip_l/hip_adduction_l/accel	/jointset/hip_l/hip_rotation_l/accel	/jointset/back/lumbar_extension/accel	/jointset/patellofemoral_l/patellar_flexion_l/accel	/jointset/knee_l/knee_flexion_l/accel	/jointset/knee_l/knee_adduction_l/accel	/jointset/knee_l/knee_rotation_l/accel	/jointset/ankle_l/ankle_angle_l/accel	/jointset/subtalar_l/subtalar_angle_l/accel	gamma_cid13_p0	gamma_cid13_p1	gamma_cid13_p2	gamma_cid13_p3	gamma_cid13_p4	gamma_cid13_p5	gamma_cid14_p0
0	-0.1600357321722786	0.05852532106265386	0.8979948522121697	0.3774924667018715	-0.259195449630213	-0.2718975151585408	-0.01265067647494873	0.03223648243722633	0.03223648243721463	-0.1745235393993199	0.1735031888821716	-0.04231377076293093	-0.009332427026545628	0	0	0	0	0	0	0	0	0	0	0	0	0	0.112802027808419	-0.05550610176249143	-0.05774760317426915	-0.3483584678454414	0.4479255760750779	-0.08404929306446862	-0.04253815969526833	99.00953930738324	12.96949733174668	4.608647187266859	-68.52028419692994	-634.0123349333761	-51.80330837015526	-39.04301332718333	-0.9397854166808484	0.8104927150850375	-0.002019812640213177	0.01796856524589184	-0.04286202834586482	0.1601697898504488	-0.9700583867462743	0.04453455574919918	0.04453455574916092	-0.06744833264757195	-0.09743721881078429	1.019014885218797	0.1951562221449961	2.768606653925693e-09	7.505243675708587e-09	-5.412710156660084e-09	-8.490865762197311e-10	6.223217406710775e-08	1.65417369729347e-08	-1.285811351563367e-10
0.01	-0.1600769631531119	0.0585600640705236	0.8979946244521	0.3774950787990322	-0.2591972459813935	-0.2718899219011545	-0.01269553565317513	0.03223970299483257	0.0322397029949238	-0.1745259504929292	0.1734987467579371	-0.04226948097904613	-0.009323890533636825	-0.007669535784292057	0.006370420440609479	-5.856653756552848e-05	0.0007005367813479896	-0.0003225510114852161	0.001467160583386574	-0.008612782485324183	0.0007576400239358923	0.0007576400239356468	-0.0003798149373495534	-0.0008313860495705674	0.008198646515505047	0.001588869797427371	0.07851425885020026	-0.04991536966976465	-0.04796655772966277	-0.2825848326362806	0.3430690363806293	-0.05310931757258874	-0.01995854084322965	66.36859259675983	5.111415771320945	6.016834644510879	-42.0785563413814	-631.906187706621	-62.52070696269684	-39.04272641491133	-0.594039061321926	0.4635893679377104	-0.009714806441491874	0.1228144821984699	-0.02144348178215584	0.1322664868744705	-0.7530302052730372	0.1084080250273666	0.1084080250273954	-0.007887822300069328	-0.06743257840185427	0.6213927605985953	0.122987446639466	1.465008456610917e-09	4.057137543307804e-09	-2.991547611809653e-09	-5.087391265132258e-10	2.866895473153442e-08	8.307170116415284e-09	7.189598198174474e-11
0.02	-0.1601775897722124	0.05864116581467676	0.8979934230802283	0.3775100399135932	-0.2592011662115278	-0.2718692015790878	-0.01281575106140182	0.03225390581267105	0.03225390581267029	-0.1745290876853777	0.1734877021169398	-0.04216298408482983	-0.009303018325134339	-0.01187912764924001	0.009271747256684391	-0.0001947223603918067	0.002469803467479327	-0.0004247757922568823	0.002625412938449086	-0.0150712460045135	0.00219645202032734	0.002196452020326931	-0.0001452197955862587	-0.001320503313990563	0.01244142206628477	0.002467143118754251	0.04422648989260266	-0.0443246375770896	-0.03818551228598298	-0.2168111974268297	0.2382124966861838	-0.02216934208074694	0.002621078009378916	33.73022639269537	-2.747333388313333	7.425375091994082	-15.67379852907018	-629.7866150798326	-73.2384414172792	-39.04255007865876	-0.2477966328117109	0.1166739901778414	-0.01753766969237132	0.2317145462025972	0.001203217796799306	0.09838814418560171	-0.5391945935191226	0.1807689502403639	0.1807689502403423	0.05543368317491906	-0.02898346178062786	0.2278406922733917	0.0530369269247731	1.614102592961409e-10	6.090314109070215e-10	-5.703850669592215e-10	-1.683916768067205e-10	-4.894264604038923e-09	7.260325989586621e-11	2.723730991198262e-10
0.03	-0.1603099047068529	0.0587410143132017	0.897990645442317	0.3775455435115163	-0.2592055484348628	-0.271837765758495	-0.01299389767072374	0.03228431313587109	0.03228431313585316	-0.1745282851138985	0.1734726753227552	-0.04202587138388982	-0.009275580784962613	-0.01469983594014729	0.01082729660049365	-0.0003571047266578593	0.004561906727555519	-0.0004732824067851873	0.003679111809528366	-0.02060597206460171	0.00383776537221379	0.003837765372212967	0.0002516998750515339	-0.001709366827770846	0.01511571365265403	0.00303070253802986	0.0510645115334314	-0.04521367802967534	-0.04017481677869839	-0.2302243833264084	0.2598019556374269	-0.02873423377961061	-0.001806117504762022	40.44732637781359	-1.048102811661479	7.126813443943094	-21.25217954552182	-630.2567786708223	-70.83723461756287	-39.04299530075534	-0.3166043714826494	0.1943969964156055	-0.01503456034002014	0.187606765696089	-0.01111962842429964	0.111464962554732	-0.5677960424204235	0.1487253857895712	0.1487253857896243	0.02371603302384317	-0.04751436255625627	0.3074128028173585	0.05956606670791769	2.470051407879873e-11	4.764692367521337e-11	-3.063696780050603e-11	-8.836057402162723e-11	-2.166875323709439e-09	-3.051007480122699e-10	7.352409759566375e-11
